<svg id="SvgjsSvg1000" xmlns="http://www.w3.org/2000/svg" version="1.1" xmlns:xlink="http://www.w3.org/1999/xlink" xmlns:svgjs="http://svgjs.com/svgjs" width="16" height="9" viewBox="0 0 16 9"><title>fa-long-arrow-right копия</title><desc>Created with Avocode.</desc><defs id="SvgjsDefs1001"></defs><path id="SvgjsPath1007" d="M551.896 490.256L548.343 487.054C548.2439999999999 486.97499999999997 548.136 486.96 548.019 487.00899999999996C547.902 487.05799999999994 547.843 487.14599999999996 547.843 487.27399999999994V489.3229999999999H536.2959999999999C536.209 489.3229999999999 536.1389999999999 489.3499999999999 536.083 489.4049999999999C536.028 489.4599999999999 536 489.5299999999999 536 489.61599999999993V491.3709999999999C536 491.45699999999994 536.028 491.52699999999993 536.083 491.58199999999994C536.139 491.63699999999994 536.209 491.66399999999993 536.2959999999999 491.66399999999993H547.843V493.7129999999999C547.843 493.8349999999999 547.9019999999999 493.9239999999999 548.019 493.9779999999999C548.136 494.0269999999999 548.244 494.0089999999999 548.343 493.9239999999999L551.896 490.68499999999995C551.957 490.62499999999994 551.9879999999999 490.55199999999996 551.9879999999999 490.46599999999995C551.9879999999999 490.38699999999994 551.957 490.31699999999995 551.896 490.256Z " fill="#4f4e4e" fill-opacity="1" transform="matrix(1,0,0,1,-536,-486)"></path></svg>