<svg id="SvgjsSvg1026" xmlns="http://www.w3.org/2000/svg" version="1.1" xmlns:xlink="http://www.w3.org/1999/xlink" xmlns:svgjs="http://svgjs.com/svgjs" width="9" height="9" viewBox="0 0 9 9"><title>fa-close</title><desc>Created with Avocode.</desc><defs id="SvgjsDefs1027"></defs><path id="SvgjsPath1028" d="M1046 492.611L1044.04 490.642L1046 488.674C1046.13 488.549 1046.19 488.397 1046.19 488.21799999999996C1046.19 488.03999999999996 1046.13 487.888 1046 487.763L1045.09 486.852C1044.97 486.727 1044.82 486.66499999999996 1044.6399999999999 486.66499999999996C1044.4599999999998 486.66499999999996 1044.31 486.727 1044.1799999999998 486.852L1042.2099999999998 488.82099999999997L1040.2499999999998 486.852C1040.1199999999997 486.727 1039.9699999999998 486.66499999999996 1039.7899999999997 486.66499999999996C1039.6099999999997 486.66499999999996 1039.4599999999998 486.727 1039.3299999999997 486.852L1038.4199999999996 487.763C1038.2999999999997 487.888 1038.2399999999996 488.03999999999996 1038.2399999999996 488.21799999999996C1038.2399999999996 488.39699999999993 1038.2999999999995 488.549 1038.4199999999996 488.674L1040.3899999999996 490.642L1038.4199999999996 492.611C1038.2999999999997 492.736 1038.2399999999996 492.888 1038.2399999999996 493.066C1038.2399999999996 493.24499999999995 1038.2999999999995 493.397 1038.4199999999996 493.522L1039.3299999999997 494.433C1039.4599999999998 494.557 1039.6099999999997 494.62 1039.7899999999997 494.62C1039.9699999999998 494.62 1040.1199999999997 494.557 1040.2499999999998 494.433L1042.2099999999998 492.464L1044.1799999999998 494.433C1044.31 494.557 1044.4599999999998 494.62 1044.6399999999999 494.62C1044.82 494.62 1044.9699999999998 494.557 1045.09 494.433L1046 493.522C1046.13 493.397 1046.19 493.245 1046.19 493.066C1046.19 492.888 1046.13 492.736 1046 492.611Z " fill="#868686" fill-opacity="1" transform="matrix(1,0,0,1,-1038,-486)"></path></svg>