<svg id="SvgjsSvg1000" xmlns="http://www.w3.org/2000/svg" version="1.1" xmlns:xlink="http://www.w3.org/1999/xlink" xmlns:svgjs="http://svgjs.com/svgjs" width="25" height="20" viewBox="0 0 25 20"><title>fa-envelope</title><desc>Created with Avocode.</desc><defs id="SvgjsDefs1001"></defs><path id="SvgjsPath1007" d="M1215.66 2320.59C1215.13 2320.9900000000002 1214.7 2321.3 1214.3700000000001 2321.52C1214.0400000000002 2321.74 1213.6000000000001 2321.97 1213.0500000000002 2322.2C1212.5000000000002 2322.43 1211.9900000000002 2322.5499999999997 1211.5100000000002 2322.5499999999997H1211.4900000000002C1211.0100000000002 2322.5499999999997 1210.5000000000002 2322.43 1209.9500000000003 2322.2C1209.4000000000003 2321.97 1208.9600000000003 2321.74 1208.6300000000003 2321.52C1208.3000000000004 2321.3 1207.8700000000003 2320.99 1207.3400000000004 2320.59C1206.0900000000004 2319.65 1203.7800000000004 2318.02 1200.4100000000003 2315.69C1199.8800000000003 2315.33 1199.4100000000003 2314.92 1199.0000000000002 2314.4500000000003V2325.7300000000005C1199.0000000000002 2326.3500000000004 1199.2200000000003 2326.8900000000003 1199.6600000000003 2327.3300000000004C1200.0900000000004 2327.78 1200.6200000000003 2328.0000000000005 1201.2300000000002 2328.0000000000005H1221.7700000000002C1222.38 2328.0000000000005 1222.9100000000003 2327.7800000000007 1223.3400000000001 2327.3300000000004C1223.7800000000002 2326.8900000000003 1224.0000000000002 2326.3500000000004 1224.0000000000002 2325.7300000000005V2314.4500000000003C1223.6000000000001 2314.9100000000003 1223.1300000000003 2315.32 1222.6000000000001 2315.69C1219.5500000000002 2317.79 1217.2400000000002 2319.42 1215.66 2320.59ZM1224 2310.28C1224 2311.03 1223.77 2311.7400000000002 1223.32 2312.42C1222.86 2313.1 1222.29 2313.69 1221.61 2314.17C1218.12 2316.64 1215.9399999999998 2318.1800000000003 1215.09 2318.79C1214.99 2318.85 1214.79 2319 1214.49 2319.22C1214.19 2319.4399999999996 1213.94 2319.62 1213.74 2319.7599999999998C1213.54 2319.8999999999996 1213.3 2320.0499999999997 1213.01 2320.22C1212.73 2320.39 1212.46 2320.52 1212.21 2320.6C1211.96 2320.69 1211.73 2320.73 1211.51 2320.73H1211.49C1211.27 2320.73 1211.04 2320.69 1210.79 2320.6C1210.54 2320.52 1210.27 2320.39 1209.99 2320.22C1209.7 2320.0499999999997 1209.46 2319.8999999999996 1209.26 2319.7599999999998C1209.06 2319.62 1208.81 2319.4399999999996 1208.51 2319.22C1208.2 2319 1208.01 2318.85 1207.91 2318.79C1207.0700000000002 2318.18 1205.8500000000001 2317.32 1204.26 2316.19C1202.67 2315.07 1201.72 2314.4 1201.4 2314.17C1200.8200000000002 2313.77 1200.2800000000002 2313.23 1199.77 2312.53C1199.26 2311.8300000000004 1199 2311.19 1199 2310.59C1199 2309.8500000000004 1199.19 2309.2400000000002 1199.58 2308.75C1199.96 2308.25 1200.52 2308.01 1201.23 2308.01H1221.77C1222.37 2308.01 1222.9 2308.23 1223.34 2308.67C1223.78 2309.12 1224 2309.65 1224 2310.28Z " fill="#ffffff" fill-opacity="1" transform="matrix(1,0,0,1,-1199,-2308)"></path></svg>