<svg id="SvgjsSvg1011" xmlns="http://www.w3.org/2000/svg" version="1.1" xmlns:xlink="http://www.w3.org/1999/xlink" xmlns:svgjs="http://svgjs.com/svgjs" width="25" height="25" viewBox="0 0 25 25"><title>fa-phone</title><desc>Created with Avocode.</desc><defs id="SvgjsDefs1012"></defs><path id="SvgjsPath1013" d="M1006.92 2339.38C1006.8499999999999 2339.1600000000003 1006.4 2338.85 1005.5699999999999 2338.44C1005.3499999999999 2338.31 1005.03 2338.13 1004.6199999999999 2337.9C1004.1999999999999 2337.6800000000003 1003.8299999999999 2337.4700000000003 1003.4899999999999 2337.28C1003.1499999999999 2337.09 1002.8399999999999 2336.9100000000003 1002.5399999999998 2336.73C1002.4899999999999 2336.7 1002.3499999999998 2336.59 1002.0999999999998 2336.42C1001.8499999999998 2336.25 1001.6399999999998 2336.12 1001.4699999999998 2336.04C1001.2999999999998 2335.96 1001.1299999999998 2335.92 1000.9599999999998 2335.92C1000.7299999999998 2335.92 1000.4299999999998 2336.09 1000.0799999999998 2336.42C999.7209999999998 2336.76 999.3949999999999 2337.13 999.0999999999998 2337.52C998.8039999999997 2337.92 998.4909999999998 2338.29 998.1599999999997 2338.62C997.8289999999997 2338.96 997.5569999999998 2339.13 997.3439999999997 2339.13C997.2369999999997 2339.13 997.1039999999997 2339.1 996.9449999999997 2339.04C996.7849999999997 2338.98 996.6639999999998 2338.93 996.5809999999997 2338.89C996.4979999999997 2338.85 996.3559999999997 2338.7599999999998 996.1549999999996 2338.64C995.9539999999996 2338.52 995.8419999999996 2338.45 995.8179999999996 2338.44C994.1979999999996 2337.54 992.8089999999996 2336.51 991.6499999999996 2335.35C990.4909999999996 2334.19 989.4619999999996 2332.7999999999997 988.5629999999996 2331.18C988.5509999999997 2331.16 988.4829999999996 2331.04 988.3589999999997 2330.8399999999997C988.2349999999997 2330.64 988.1519999999997 2330.4999999999995 988.1109999999996 2330.4199999999996C988.0689999999996 2330.3399999999997 988.0189999999997 2330.2099999999996 987.9599999999997 2330.0499999999997C987.9009999999997 2329.8999999999996 987.8709999999996 2329.7599999999998 987.8709999999996 2329.6499999999996C987.8709999999996 2329.4399999999996 988.0399999999996 2329.1699999999996 988.3769999999996 2328.8399999999997C988.7139999999996 2328.5099999999998 989.0799999999996 2328.2 989.4769999999996 2327.8999999999996C989.8729999999996 2327.5999999999995 990.2389999999996 2327.2799999999997 990.5759999999997 2326.9199999999996C990.9139999999996 2326.5699999999997 991.0819999999997 2326.2699999999995 991.0819999999997 2326.0399999999995C991.0819999999997 2325.8699999999994 991.0409999999996 2325.6999999999994 990.9579999999996 2325.5299999999993C990.8749999999997 2325.359999999999 990.7479999999996 2325.149999999999 990.5759999999997 2324.899999999999C990.4049999999996 2324.649999999999 990.3009999999997 2324.5099999999993 990.2659999999997 2324.459999999999C990.0889999999997 2324.159999999999 989.9049999999997 2323.849999999999 989.7159999999998 2323.5099999999993C989.5269999999998 2323.169999999999 989.3199999999998 2322.7999999999993 989.0949999999998 2322.379999999999C988.8709999999998 2321.9699999999993 988.6929999999998 2321.649999999999 988.5629999999998 2321.419999999999C988.1489999999998 2320.599999999999 987.8359999999998 2320.149999999999 987.6229999999997 2320.079999999999C987.5399999999997 2320.039999999999 987.4159999999997 2320.019999999999 987.2509999999997 2320.019999999999C986.9309999999997 2320.019999999999 986.5139999999998 2320.079999999999 985.9999999999998 2320.199999999999C985.4849999999998 2320.319999999999 985.0799999999998 2320.4399999999987 984.7849999999997 2320.569999999999C984.1929999999998 2320.819999999999 983.5669999999998 2321.5399999999986 982.9049999999997 2322.739999999999C982.3009999999997 2323.849999999999 981.9999999999998 2324.949999999999 981.9999999999998 2326.039999999999C981.9999999999998 2326.359999999999 982.0199999999998 2326.669999999999 982.0619999999998 2326.969999999999C982.1029999999998 2327.269999999999 982.1769999999998 2327.6099999999988 982.2839999999998 2327.989999999999C982.3899999999998 2328.369999999999 982.4759999999998 2328.6499999999987 982.5409999999997 2328.829999999999C982.6059999999998 2329.009999999999 982.7269999999997 2329.3399999999992 982.9049999999997 2329.809999999999C983.0819999999998 2330.289999999999 983.1879999999998 2330.579999999999 983.2239999999997 2330.679999999999C983.6379999999997 2331.839999999999 984.1279999999997 2332.8799999999987 984.6959999999997 2333.789999999999C985.6299999999997 2335.2999999999993 986.9049999999996 2336.869999999999 988.5189999999997 2338.479999999999C990.1329999999997 2340.0899999999992 991.6969999999997 2341.369999999999 993.2109999999997 2342.2999999999993C994.1209999999996 2342.8699999999994 995.1559999999997 2343.359999999999 996.3149999999997 2343.7799999999993C996.4219999999997 2343.8099999999995 996.7109999999997 2343.919999999999 997.1839999999997 2344.0899999999992C997.6569999999997 2344.269999999999 997.9849999999998 2344.3899999999994 998.1689999999998 2344.459999999999C998.3519999999997 2344.519999999999 998.6329999999998 2344.609999999999 999.0109999999997 2344.7199999999993C999.3899999999998 2344.8199999999993 999.7299999999998 2344.899999999999 1000.0299999999997 2344.939999999999C1000.3299999999997 2344.979999999999 1000.6399999999998 2344.999999999999 1000.9599999999997 2344.999999999999C1002.0499999999997 2344.999999999999 1003.1499999999997 2344.699999999999 1004.2599999999996 2344.0899999999992C1005.4599999999997 2343.4299999999994 1006.1799999999996 2342.809999999999 1006.4299999999996 2342.209999999999C1006.5599999999996 2341.919999999999 1006.6799999999996 2341.5099999999993 1006.7999999999996 2340.999999999999C1006.9199999999996 2340.479999999999 1006.9799999999996 2340.0699999999993 1006.9799999999996 2339.749999999999C1006.9799999999996 2339.579999999999 1006.9599999999996 2339.459999999999 1006.9199999999996 2339.379999999999Z " fill="#ffffff" fill-opacity="1" transform="matrix(1,0,0,1,-982,-2320)"></path></svg>