<svg id="SvgjsSvg1023" xmlns="http://www.w3.org/2000/svg" version="1.1" xmlns:xlink="http://www.w3.org/1999/xlink" xmlns:svgjs="http://svgjs.com/svgjs" width="13" height="13" viewBox="0 0 13 13"><title>fa-plus</title><desc>Created with Avocode.</desc><defs id="SvgjsDefs1024"></defs><path id="SvgjsPath1025" d="M571.729 628.993C571.557 628.821 571.3480000000001 628.735 571.1020000000001 628.735H567.2650000000001V624.897C567.2650000000001 624.6510000000001 567.1790000000001 624.442 567.0070000000001 624.2700000000001C566.8340000000001 624.0980000000001 566.6250000000001 624.0120000000001 566.379 624.0120000000001H564.6080000000001C564.3620000000001 624.0120000000001 564.153 624.0980000000001 563.9810000000001 624.2700000000001C563.8090000000001 624.4420000000001 563.7230000000001 624.6510000000001 563.7230000000001 624.897V628.735H559.8850000000001C559.6390000000001 628.735 559.4300000000001 628.821 559.2580000000002 628.993C559.0860000000001 629.1650000000001 559.0000000000001 629.374 559.0000000000001 629.62V631.391C559.0000000000001 631.637 559.0860000000001 631.846 559.2580000000002 632.0179999999999C559.4300000000002 632.1909999999999 559.6390000000001 632.2769999999999 559.8850000000001 632.2769999999999H563.7230000000001V636.1139999999999C563.7230000000001 636.3599999999999 563.8090000000001 636.569 563.9810000000001 636.7409999999999C564.1530000000001 636.9129999999999 564.3620000000001 636.9999999999999 564.6080000000001 636.9999999999999H566.379C566.625 636.9999999999999 566.8340000000001 636.9129999999999 567.0070000000001 636.7409999999999C567.1790000000001 636.5689999999998 567.2650000000001 636.3599999999999 567.2650000000001 636.1139999999999V632.2769999999999H571.1020000000001C571.3480000000001 632.2769999999999 571.5570000000001 632.1909999999999 571.729 632.0179999999999C571.9010000000001 631.8459999999999 571.988 631.637 571.988 631.391V629.62C571.988 629.374 571.9010000000001 629.165 571.729 628.993Z " fill="#8e8e8e" fill-opacity="1" transform="matrix(1,0,0,1,-559,-624)"></path></svg>