<svg id="SvgjsSvg1014" xmlns="http://www.w3.org/2000/svg" version="1.1" xmlns:xlink="http://www.w3.org/1999/xlink" xmlns:svgjs="http://svgjs.com/svgjs" width="29" height="29" viewBox="0 0 29 29"><title>fa-search-plus</title><desc>Created with Avocode.</desc><defs id="SvgjsDefs1015"></defs><path id="SvgjsPath1016" d="M1109.66 666.329C1109.5500000000002 666.2189999999999 1109.42 666.1629999999999 1109.27 666.1629999999999H1105.37V662.2639999999999C1105.37 662.1139999999999 1105.31 661.983 1105.1999999999998 661.8719999999998C1105.09 661.7619999999998 1104.9599999999998 661.7069999999999 1104.8099999999997 661.7069999999999H1103.6999999999998C1103.5499999999997 661.7069999999999 1103.4199999999998 661.7619999999998 1103.3099999999997 661.8719999999998C1103.1999999999998 661.9829999999998 1103.1399999999996 662.1139999999998 1103.1399999999996 662.2639999999999V666.1629999999999H1099.2399999999996C1099.0899999999995 666.1629999999999 1098.9599999999996 666.2189999999999 1098.8499999999995 666.329C1098.7399999999996 666.439 1098.6799999999994 666.569 1098.6799999999994 666.7199999999999V667.834C1098.6799999999994 667.9849999999999 1098.7399999999993 668.116 1098.8499999999995 668.226C1098.9599999999994 668.337 1099.0899999999995 668.391 1099.2399999999996 668.391H1103.1399999999996V672.2909999999999C1103.1399999999996 672.4419999999999 1103.1999999999996 672.5719999999999 1103.3099999999997 672.6819999999999C1103.4199999999996 672.7929999999999 1103.5499999999997 672.8469999999999 1103.6999999999998 672.8469999999999H1104.8099999999997C1104.9599999999998 672.8469999999999 1105.0899999999997 672.7929999999999 1105.1999999999998 672.6819999999999C1105.3099999999997 672.5719999999999 1105.37 672.4419999999999 1105.37 672.2909999999999V668.391H1109.27C1109.42 668.391 1109.55 668.337 1109.66 668.226C1109.77 668.116 1109.8200000000002 667.985 1109.8200000000002 667.834V666.7199999999999C1109.8200000000002 666.569 1109.7700000000002 666.439 1109.66 666.329ZM1104.25 675.076C1102.11 675.076 1100.27 674.313 1098.75 672.787C1097.22 671.2610000000001 1096.46 669.424 1096.46 667.277C1096.46 665.1310000000001 1097.22 663.2940000000001 1098.75 661.768C1100.27 660.2420000000001 1102.11 659.479 1104.25 659.479C1106.4 659.479 1108.24 660.2420000000001 1109.76 661.768C1111.29 663.294 1112.05 665.1310000000001 1112.05 667.277C1112.05 669.4240000000001 1111.29 671.2610000000001 1109.76 672.787C1108.24 674.313 1106.4 675.076 1104.25 675.076ZM1114.35 674.223C1115.79 672.146 1116.51 669.8299999999999 1116.51 667.2769999999999C1116.51 665.6179999999999 1116.19 664.031 1115.54 662.5169999999999C1114.8999999999999 661.002 1114.03 659.6969999999999 1112.93 658.5999999999999C1111.8400000000001 657.5029999999999 1110.53 656.6329999999999 1109.02 655.9889999999999C1107.5 655.3449999999999 1105.91 655.0229999999999 1104.25 655.0229999999999C1102.59 655.0229999999999 1101.01 655.3449999999999 1099.49 655.9889999999999C1097.98 656.6329999999999 1096.67 657.5029999999999 1095.58 658.5999999999999C1094.48 659.6969999999999 1093.61 661.002 1092.97 662.5169999999999C1092.32 664.031 1092 665.6179999999999 1092 667.2769999999999C1092 668.9369999999999 1092.32 670.5239999999999 1092.97 672.0379999999999C1093.6100000000001 673.5529999999999 1094.48 674.858 1095.58 675.9549999999999C1096.6699999999998 677.0509999999999 1097.98 677.9219999999999 1099.49 678.5659999999999C1101.01 679.2099999999999 1102.59 679.5319999999999 1104.25 679.5319999999999C1106.81 679.5319999999999 1109.12 678.8119999999999 1111.2 677.3729999999999L1117.17 683.3269999999999C1117.5900000000001 683.7669999999999 1118.1100000000001 683.9879999999998 1118.74 683.9879999999998C1119.35 683.9879999999998 1119.88 683.7699999999999 1120.31 683.3349999999998C1120.75 682.8999999999999 1120.97 682.3749999999998 1120.97 681.7599999999998C1120.97 681.1449999999998 1120.75 680.6219999999997 1120.32 680.1929999999998Z " fill="#ffffff" fill-opacity="1" transform="matrix(1,0,0,1,-1092,-655)"></path></svg>