<svg id="SvgjsSvg1017" xmlns="http://www.w3.org/2000/svg" version="1.1" xmlns:xlink="http://www.w3.org/1999/xlink" xmlns:svgjs="http://svgjs.com/svgjs" width="18" height="18" viewBox="0 0 18 18"><title>fa-search</title><desc>Created with Avocode.</desc><defs id="SvgjsDefs1018"></defs><path id="SvgjsPath1019" d="M1155.61 50.4603C1154.27 50.4603 1153.1299999999999 49.9869 1152.1899999999998 49.039699999999996C1151.2399999999998 48.0926 1150.7699999999998 46.9529 1150.7699999999998 45.62C1150.7699999999998 44.2878 1151.2399999999998 43.1476 1152.1899999999998 42.2007C1153.1299999999999 41.253499999999995 1154.2699999999998 40.779799999999994 1155.61 40.779799999999994C1156.9399999999998 40.779799999999994 1158.08 41.253499999999995 1159.03 42.2007C1159.97 43.1476 1160.45 44.2878 1160.45 45.62C1160.45 46.9529 1159.97 48.0926 1159.03 49.039699999999996C1158.08 49.9869 1156.94 50.4603 1155.61 50.4603ZM1161.87 49.931C1162.77 48.641799999999996 1163.2099999999998 47.205099999999995 1163.2099999999998 45.62C1163.2099999999998 44.590199999999996 1163.0099999999998 43.605 1162.61 42.6652C1162.2099999999998 41.7252 1161.6699999999998 40.914699999999996 1160.99 40.2343C1160.31 39.5535 1159.5 39.013099999999994 1158.56 38.6136C1157.62 38.2138 1156.6399999999999 38.0139 1155.61 38.0139C1154.58 38.0139 1153.59 38.2138 1152.6499999999999 38.6136C1151.7099999999998 39.0131 1150.8999999999999 39.5535 1150.2199999999998 40.2343C1149.5399999999997 40.914699999999996 1148.9999999999998 41.7252 1148.6 42.6652C1148.1999999999998 43.605 1148 44.590199999999996 1148 45.62C1148 46.6504 1148.2 47.635099999999994 1148.6 48.575199999999995C1149 49.51519999999999 1149.54 50.325399999999995 1150.2199999999998 51.006099999999996C1150.8999999999999 51.6868 1151.7099999999998 52.22689999999999 1152.6499999999999 52.626799999999996C1153.59 53.026599999999995 1154.58 53.2266 1155.61 53.2266C1157.1899999999998 53.2266 1158.6299999999999 52.779799999999994 1159.9199999999998 51.8865L1163.62 55.5818C1163.8799999999999 55.8554 1164.2099999999998 55.9925 1164.6 55.9925C1164.9699999999998 55.9925 1165.29 55.8554 1165.57 55.5818C1165.84 55.3078 1165.98 54.9837 1165.98 54.609500000000004C1165.98 54.2276 1165.84 53.903400000000005 1165.58 53.63700000000001Z " fill="#ffffff" fill-opacity="1" transform="matrix(1,0,0,1,-1148,-38)"></path></svg>