<svg id="SvgjsSvg1020" xmlns="http://www.w3.org/2000/svg" version="1.1" xmlns:xlink="http://www.w3.org/1999/xlink" xmlns:svgjs="http://svgjs.com/svgjs" width="18" height="16" viewBox="0 0 18 16"><title>fa-shopping-cart</title><desc>Created with Avocode.</desc><defs id="SvgjsDefs1021"></defs><path id="SvgjsPath1022" d="M1341.51 90.5198C1341.79 90.8075 1341.92 91.1479 1341.92 91.5412C1341.92 91.9351 1341.79 92.2754 1341.51 92.5629C1341.24 92.8506 1340.91 92.9945 1340.54 92.9945C1340.1599999999999 92.9945 1339.84 92.8506 1339.57 92.5629C1339.29 92.2754 1339.1499999999999 91.9351 1339.1499999999999 91.5412C1339.1499999999999 91.1479 1339.29 90.8075 1339.57 90.5198C1339.84 90.2321 1340.1599999999999 90.0887 1340.54 90.0887C1340.9099999999999 90.0887 1341.24 90.2321 1341.51 90.5198ZM1351.21 90.5198C1351.48 90.8075 1351.6200000000001 91.1479 1351.6200000000001 91.5412C1351.6200000000001 91.9351 1351.48 92.2754 1351.21 92.5629C1350.93 92.8506 1350.6100000000001 92.9945 1350.24 92.9945C1349.86 92.9945 1349.54 92.8506 1349.26 92.5629C1348.99 92.2754 1348.85 91.9351 1348.85 91.5412C1348.85 91.1479 1348.99 90.8075 1349.26 90.5198C1349.54 90.2321 1349.86 90.0887 1350.24 90.0887C1350.61 90.0887 1350.93 90.2321 1351.21 90.5198ZM1352.8 78.6807C1352.6599999999999 78.5371 1352.5 78.4651 1352.31 78.4651H1339.32C1339.31 78.4119 1339.29 78.3135 1339.27 78.16950000000001C1339.24 78.02600000000001 1339.22 77.91450000000002 1339.21 77.83500000000001C1339.19 77.75580000000001 1339.17 77.65750000000001 1339.1200000000001 77.53980000000001C1339.0800000000002 77.42250000000001 1339.0300000000002 77.32990000000001 1338.98 77.26160000000002C1338.93 77.19360000000002 1338.8600000000001 77.13500000000002 1338.77 77.08590000000001C1338.68 77.0366 1338.58 77.01180000000001 1338.46 77.01180000000001H1335.69C1335.5 77.01180000000001 1335.3400000000001 77.084 1335.21 77.22760000000001C1335.07 77.37160000000002 1335 77.5416 1335 77.7386C1335 77.93520000000001 1335.07 78.10560000000001 1335.21 78.2492C1335.3400000000001 78.393 1335.5 78.4651 1335.69 78.4651H1337.9L1339.8100000000002 87.8071C1339.8000000000002 87.8448 1339.7400000000002 87.9563 1339.65 88.14200000000001C1339.5500000000002 88.3272 1339.47 88.47850000000001 1339.41 88.59570000000001C1339.3600000000001 88.7133 1339.3000000000002 88.84960000000001 1339.24 89.0044C1339.18 89.1596 1339.15 89.2788 1339.15 89.3619C1339.15 89.55900000000001 1339.22 89.7291 1339.3600000000001 89.873C1339.5000000000002 90.01650000000001 1339.66 90.0887 1339.8500000000001 90.0887H1350.93C1351.1100000000001 90.0887 1351.28 90.01650000000001 1351.41 89.873C1351.5500000000002 89.7291 1351.6200000000001 89.55900000000001 1351.6200000000001 89.3619C1351.6200000000001 89.16550000000001 1351.5500000000002 88.9949 1351.41 88.85140000000001C1351.28 88.70750000000001 1351.1100000000001 88.63550000000001 1350.93 88.63550000000001H1340.97C1341.15 88.2724 1341.23 88.03030000000001 1341.23 87.90870000000001C1341.23 87.8336 1341.19 87.56830000000001 1341.09 87.11480000000002L1352.3899999999999 85.72940000000001C1352.56 85.70690000000002 1352.7099999999998 85.62610000000001 1352.83 85.48550000000002C1352.9499999999998 85.34580000000001 1353 85.18480000000001 1353 85.00320000000002V79.19140000000002C1353 78.99470000000001 1352.94 78.82470000000002 1352.8 78.68070000000002Z " fill="#4f4e4e" fill-opacity="1" transform="matrix(1,0,0,1,-1335,-77)"></path></svg>