<svg id="SvgjsSvg1008" xmlns="http://www.w3.org/2000/svg" version="1.1" xmlns:xlink="http://www.w3.org/1999/xlink" xmlns:svgjs="http://svgjs.com/svgjs" width="31" height="31" viewBox="0 0 31 31"><title>fa-skype</title><desc>Created with Avocode.</desc><defs id="SvgjsDefs1009"></defs><path id="SvgjsPath1010" d="M1003.28 2414.82C1002.85 2415.5800000000004 1002.27 2416.19 1001.55 2416.65C1000.8199999999999 2417.11 1000.02 2417.4500000000003 999.1519999999999 2417.69C998.2789999999999 2417.94 997.367 2418.06 996.4169999999999 2418.06C994.2149999999999 2418.06 992.3199999999999 2417.63 990.7309999999999 2416.7799999999997C989.1409999999998 2415.9199999999996 988.3469999999999 2414.8999999999996 988.3469999999999 2413.7C988.3469999999999 2413.1099999999997 988.5129999999999 2412.62 988.8449999999999 2412.23C989.1769999999999 2411.84 989.6689999999999 2411.65 990.3199999999999 2411.65C990.698 2411.65 991.05 2411.75 991.3749999999999 2411.96C991.7009999999999 2412.17 992.0009999999999 2412.42 992.2739999999999 2412.71C992.5479999999999 2413.01 992.8439999999999 2413.3 993.1629999999999 2413.59C993.4819999999999 2413.88 993.906 2414.1400000000003 994.4329999999999 2414.34C994.9609999999999 2414.55 995.5569999999999 2414.6600000000003 996.2209999999999 2414.6600000000003C997.0679999999999 2414.6600000000003 997.7519999999998 2414.4900000000002 998.2729999999999 2414.1600000000003C998.7939999999999 2413.8300000000004 999.055 2413.4100000000003 999.055 2412.9C999.055 2412.38 998.846 2411.9900000000002 998.429 2411.73C998.143 2411.54 997.413 2411.31 996.241 2411.02L993.388 2410.32C992.606 2410.1400000000003 991.9350000000001 2409.92 991.375 2409.6800000000003C990.815 2409.4400000000005 990.294 2409.13 989.812 2408.7400000000002C989.33 2408.34 988.965 2407.8500000000004 988.718 2407.26C988.4699999999999 2406.67 988.347 2405.9700000000003 988.347 2405.1800000000003C988.347 2404.2300000000005 988.5649999999999 2403.3900000000003 989.001 2402.67C989.438 2401.9500000000003 990.0169999999999 2401.38 990.74 2400.9700000000003C991.463 2400.5600000000004 992.242 2400.2500000000005 993.075 2400.05C993.909 2399.8500000000004 994.769 2399.75 995.6550000000001 2399.75C996.9050000000001 2399.75 998.09 2399.9 999.2110000000001 2400.2C1000.3300000000002 2400.5 1001.2600000000001 2400.9399999999996 1001.9900000000001 2401.52C1002.7100000000002 2402.1 1003.0800000000002 2402.74 1003.0800000000002 2403.46C1003.0800000000002 2404.05 1002.8900000000001 2404.55 1002.5200000000002 2404.96C1002.1500000000002 2405.38 1001.6600000000002 2405.59 1001.0500000000002 2405.59C1000.7100000000002 2405.59 1000.4000000000002 2405.51 1000.1100000000001 2405.36C999.8230000000001 2405.2000000000003 999.5630000000001 2405.01 999.3280000000001 2404.79C999.094 2404.57 998.8460000000001 2404.35 998.5860000000001 2404.13C998.3250000000002 2403.92 997.9730000000001 2403.73 997.5300000000001 2403.58C997.0870000000001 2403.42 996.5860000000001 2403.34 996.0260000000001 2403.34C994.1500000000001 2403.34 993.2120000000001 2403.84 993.2120000000001 2404.8500000000004C993.2120000000001 2405.07 993.2610000000001 2405.26 993.3590000000002 2405.4300000000003C993.4560000000001 2405.6000000000004 993.5640000000002 2405.7400000000002 993.6810000000002 2405.84C993.7980000000001 2405.9500000000003 993.9940000000001 2406.05 994.2670000000002 2406.1600000000003C994.5410000000002 2406.26 994.7690000000001 2406.34 994.9510000000001 2406.38C995.1330000000002 2406.4300000000003 995.4200000000002 2406.5 995.8110000000001 2406.59L997.8430000000002 2407.06C998.4810000000002 2407.2 999.0510000000002 2407.35 999.5530000000002 2407.5C1000.0500000000002 2407.66 1000.5900000000003 2407.88 1001.1600000000002 2408.17C1001.7400000000002 2408.46 1002.2100000000002 2408.77 1002.5900000000001 2409.13C1002.9700000000001 2409.48 1003.2800000000002 2409.92 1003.5400000000002 2410.46C1003.7900000000002 2411.01 1003.9200000000002 2411.6 1003.9200000000002 2412.25C1003.9200000000002 2413.2 1003.7000000000002 2414.06 1003.2800000000002 2414.82ZM1009.76 2408.99C1009.76 2407.1299999999997 1009.4 2405.35 1008.68 2403.6499999999996C1007.9499999999999 2401.95 1006.9799999999999 2400.4799999999996 1005.75 2399.2499999999995C1004.52 2398.0199999999995 1003.05 2397.0399999999995 1001.35 2396.3199999999997C999.6510000000001 2395.6 997.869 2395.2299999999996 996.006 2395.2299999999996C995.055 2395.2299999999996 994.078 2395.3399999999997 993.0749999999999 2395.5499999999997C991.7199999999999 2394.4999999999995 990.1959999999999 2393.9799999999996 988.5029999999999 2393.9799999999996C986.4319999999999 2393.9799999999996 984.6639999999999 2394.7199999999993 983.198 2396.1799999999994C981.733 2397.649999999999 981 2399.419999999999 981 2401.4899999999993C981 2403.1799999999994 981.521 2404.6999999999994 982.563 2406.0599999999995C982.355 2407.0599999999995 982.25 2408.0399999999995 982.25 2408.9899999999993C982.25 2410.8499999999995 982.612 2412.629999999999 983.335 2414.3299999999995C984.058 2416.0299999999993 985.0350000000001 2417.4999999999995 986.2660000000001 2418.7299999999996C987.4970000000001 2419.9599999999996 988.9620000000001 2420.9399999999996 990.662 2421.6599999999994C992.3620000000001 2422.379999999999 994.143 2422.7499999999995 996.0060000000001 2422.7499999999995C996.9570000000001 2422.7499999999995 997.9340000000001 2422.6399999999994 998.9370000000001 2422.4299999999994C1000.2900000000001 2423.4799999999996 1001.8200000000002 2423.9999999999995 1003.5100000000001 2423.9999999999995C1005.5800000000002 2423.9999999999995 1007.3500000000001 2423.2599999999998 1008.8100000000001 2421.7999999999997C1010.2800000000001 2420.33 1011.0100000000001 2418.56 1011.0100000000001 2416.49C1011.0100000000001 2414.7999999999997 1010.4900000000001 2413.2799999999997 1009.4500000000002 2411.9199999999996C1009.6600000000002 2410.9199999999996 1009.7600000000001 2409.9399999999996 1009.7600000000001 2408.99Z " fill="#ffffff" fill-opacity="1" transform="matrix(1,0,0,1,-981,-2393)"></path></svg>