<?xml version="1.0" encoding="UTF-8"?><!DOCTYPE svg PUBLIC "-//W3C//DTD SVG 1.1//EN" "http://www.w3.org/Graphics/SVG/1.1/DTD/svg11.dtd"><svg xmlns="http://www.w3.org/2000/svg"><symbol id="icon-arrow-right" viewBox="0 0 16 9">
    <title>
        fa-long-arrow-right &#x43A;&#x43E;&#x43F;&#x438;&#x44F;
    </title>
    <path d="M15.896 4.256l-3.553-3.202a.3.3 0 0 0-.324-.045.265.265 0 0 0-.176.265v2.049H.296a.29.29 0 0 0-.213.082.286.286 0 0 0-.083.211v1.755c0 .086.028.156.083.211a.29.29 0 0 0 .213.082h11.547v2.049c0 .122.059.211.176.265a.291.291 0 0 0 .324-.054l3.553-3.239a.296.296 0 0 0 0-.429z"/>
</symbol><symbol id="icon-close" viewBox="0 0 9 9">
    <title>
        fa-close
    </title>
    <path d="M8 6.611L6.04 4.642 8 2.674a.604.604 0 0 0 .19-.456c0-.178-.06-.33-.19-.455L7.09.852a.598.598 0 0 0-.45-.187c-.18 0-.33.062-.46.187L4.21 2.821 2.25.852a.636.636 0 0 0-.46-.187c-.18 0-.33.062-.46.187l-.91.911a.633.633 0 0 0-.18.455c0 .179.06.331.18.456l1.97 1.968L.42 6.611a.633.633 0 0 0-.18.455c0 .179.06.331.18.456l.91.911a.64.64 0 0 0 .46.187.64.64 0 0 0 .46-.187l1.96-1.969 1.97 1.969a.64.64 0 0 0 .46.187c.18 0 .33-.063.45-.187L8 7.522a.604.604 0 0 0 .19-.456c0-.178-.06-.33-.19-.455z"/>
</symbol><symbol id="icon-facebook" viewBox="0 0 10 19">
    <title>
        facebook
    </title>
    <path d="M9.766.157v2.946H8.014c-.64 0-1.071.134-1.295.402-.223.268-.335.67-.335 1.205v2.11h3.27l-.435 3.303H6.384v8.471H2.97v-8.47H.123V6.82H2.97V4.387c0-1.384.387-2.457 1.161-3.22C4.904.404 5.934.023 7.222.023c1.093 0 1.941.045 2.544.134z" fill-rule="evenodd"/>
</symbol><symbol id="icon-mail" viewBox="0 0 25 20">
    <title>
        fa-envelope
    </title>
    <path d="M16.66 12.59c-.53.4-.96.71-1.29.93-.33.22-.77.45-1.32.68-.55.23-1.06.35-1.54.35h-.02c-.48 0-.99-.12-1.54-.35-.55-.23-.99-.46-1.32-.68-.33-.22-.76-.53-1.29-.93-1.25-.94-3.56-2.57-6.93-4.9-.53-.36-1-.77-1.41-1.24v11.28c0 .62.22 1.16.66 1.6.43.45.96.67 1.57.67h20.54c.61 0 1.14-.22 1.57-.67.44-.44.66-.98.66-1.6V6.45c-.4.46-.87.87-1.4 1.24-3.05 2.1-5.36 3.73-6.94 4.9zM25 2.28c0 .75-.23 1.46-.68 2.14-.46.68-1.03 1.27-1.71 1.75-3.49 2.47-5.67 4.01-6.52 4.62-.1.06-.3.21-.6.43s-.55.4-.75.54c-.2.14-.44.29-.73.46-.28.17-.55.3-.8.38-.25.09-.48.13-.7.13h-.02c-.22 0-.45-.04-.7-.13-.25-.08-.52-.21-.8-.38-.29-.17-.53-.32-.73-.46-.2-.14-.45-.32-.75-.54-.31-.22-.5-.37-.6-.43-.84-.61-2.06-1.47-3.65-2.6C3.67 7.07 2.72 6.4 2.4 6.17c-.58-.4-1.12-.94-1.63-1.64C.26 3.83 0 3.19 0 2.59 0 1.85.19 1.24.58.75c.38-.5.94-.74 1.65-.74h20.54c.6 0 1.13.22 1.57.66.44.45.66.98.66 1.61z"/>
</symbol><symbol id="icon-phone" viewBox="0 0 25 25">
    <title>
        fa-phone
    </title>
    <path d="M24.92 19.38c-.07-.22-.52-.53-1.35-.94-.22-.13-.54-.31-.95-.54-.42-.22-.79-.43-1.13-.62-.34-.19-.65-.37-.95-.55-.05-.03-.19-.14-.44-.31-.25-.17-.46-.3-.63-.38-.17-.08-.34-.12-.51-.12-.23 0-.53.17-.88.5-.359.34-.685.71-.98 1.1-.296.4-.609.77-.94 1.1-.331.34-.603.51-.816.51-.107 0-.24-.03-.399-.09-.16-.06-.281-.11-.364-.15-.083-.04-.225-.13-.426-.25-.201-.12-.313-.19-.337-.2-1.62-.9-3.009-1.93-4.168-3.09-1.159-1.16-2.188-2.55-3.087-4.17-.012-.02-.08-.14-.204-.34-.124-.2-.207-.34-.248-.42a3.593 3.593 0 0 1-.151-.37 1.144 1.144 0 0 1-.089-.4c0-.21.169-.48.506-.81.337-.33.703-.64 1.1-.94.396-.3.762-.62 1.099-.98.338-.35.506-.65.506-.88 0-.17-.041-.34-.124-.51-.083-.17-.21-.38-.382-.63-.171-.25-.275-.39-.31-.44-.177-.3-.361-.61-.55-.95-.189-.34-.396-.71-.621-1.13-.224-.41-.402-.73-.532-.96C6.149.6 5.836.15 5.623.08a.891.891 0 0 0-.372-.06C4.931.02 4.514.08 4 .2c-.515.12-.92.24-1.215.37-.592.25-1.218.97-1.88 2.17C.301 3.85 0 4.95 0 6.04c0 .32.02.63.062.93.041.3.115.64.222 1.02.106.38.192.66.257.84a163.228 163.228 0 0 1 .683 1.85c.414 1.16.904 2.2 1.472 3.11.934 1.51 2.209 3.08 3.823 4.69 1.614 1.61 3.178 2.89 4.692 3.82.91.57 1.945 1.06 3.104 1.48.107.03.396.14.869.31.473.18.801.3.985.37.183.06.464.15.842.26.379.1.719.18 1.019.22.3.04.61.06.93.06 1.09 0 2.19-.3 3.3-.91 1.2-.66 1.92-1.28 2.17-1.88.13-.29.25-.7.37-1.21.12-.52.18-.93.18-1.25 0-.17-.02-.29-.06-.37z"/>
</symbol><symbol id="icon-plus" viewBox="0 0 13 13">
    <title>
        fa-plus
    </title>
    <path d="M12.729 4.993a.854.854 0 0 0-.627-.258H8.265V.897A.854.854 0 0 0 8.007.27a.857.857 0 0 0-.628-.258H5.608a.854.854 0 0 0-.627.258.854.854 0 0 0-.258.627v3.838H.885a.854.854 0 0 0-.627.258A.854.854 0 0 0 0 5.62v1.771c0 .246.086.455.258.627a.85.85 0 0 0 .627.259h3.838v3.837c0 .246.086.455.258.627a.854.854 0 0 0 .627.259h1.771a.858.858 0 0 0 .628-.259.854.854 0 0 0 .258-.627V8.277h3.837a.85.85 0 0 0 .627-.259.854.854 0 0 0 .259-.627V5.62a.854.854 0 0 0-.259-.627z"/>
</symbol><symbol id="icon-search-plus" viewBox="0 0 29 29">
    <title>
        fa-search-plus
    </title>
    <path d="M17.66 11.329a.534.534 0 0 0-.39-.166h-3.9V7.264c0-.15-.06-.281-.17-.392a.533.533 0 0 0-.39-.165H11.7c-.15 0-.28.055-.39.165a.544.544 0 0 0-.17.392v3.899h-3.9c-.15 0-.28.056-.39.166-.11.11-.17.24-.17.391v1.114c0 .151.06.282.17.392a.53.53 0 0 0 .39.165h3.9v3.9c0 .151.06.281.17.391a.53.53 0 0 0 .39.165h1.11a.53.53 0 0 0 .39-.165c.11-.11.17-.24.17-.391v-3.9h3.9a.53.53 0 0 0 .39-.165c.11-.11.16-.241.16-.392V11.72a.529.529 0 0 0-.16-.391zm-5.41 8.747c-2.14 0-3.98-.763-5.5-2.289-1.53-1.526-2.29-3.363-2.29-5.51 0-2.146.76-3.983 2.29-5.509 1.52-1.526 3.36-2.289 5.5-2.289 2.15 0 3.99.763 5.51 2.289 1.53 1.526 2.29 3.363 2.29 5.509 0 2.147-.76 3.984-2.29 5.51-1.52 1.526-3.36 2.289-5.51 2.289zm10.1-.853c1.44-2.077 2.16-4.393 2.16-6.946 0-1.659-.32-3.246-.97-4.76-.64-1.515-1.51-2.82-2.61-3.917-1.09-1.097-2.4-1.967-3.91-2.611a12.105 12.105 0 0 0-4.77-.966c-1.66 0-3.24.322-4.76.966-1.51.644-2.82 1.514-3.91 2.611C2.48 4.697 1.61 6.002.97 7.517a11.938 11.938 0 0 0-.97 4.76c0 1.66.32 3.247.97 4.761.64 1.515 1.51 2.82 2.61 3.917 1.09 1.096 2.4 1.967 3.91 2.611 1.52.644 3.1.966 4.76.966 2.56 0 4.87-.72 6.95-2.159l5.97 5.954c.42.44.94.661 1.57.661.61 0 1.14-.218 1.57-.653.44-.435.66-.96.66-1.575s-.22-1.138-.65-1.567z"/>
</symbol><symbol id="icon-search" viewBox="0 0 18 18">
    <title>
        fa-search
    </title>
    <path d="M7.61 12.46c-1.34 0-2.48-.473-3.42-1.42-.95-.947-1.42-2.087-1.42-3.42 0-1.332.47-2.472 1.42-3.42.94-.947 2.08-1.42 3.42-1.42 1.33 0 2.47.473 3.42 1.42.94.948 1.42 2.088 1.42 3.42 0 1.333-.48 2.473-1.42 3.42-.95.947-2.09 1.42-3.42 1.42zm6.26-.529c.9-1.29 1.34-2.726 1.34-4.311 0-1.03-.2-2.015-.6-2.955-.4-.94-.94-1.75-1.62-2.43A7.587 7.587 0 0 0 10.56.613c-.94-.4-1.92-.6-2.95-.6-1.03 0-2.02.2-2.96.6-.94.4-1.75.94-2.43 1.62C1.54 2.914 1 3.725.6 4.665.2 5.605 0 6.59 0 7.62s.2 2.015.6 2.955c.4.94.94 1.75 1.62 2.431.68.68 1.49 1.22 2.43 1.62.94.4 1.93.6 2.96.6 1.58 0 3.02-.446 4.31-1.34l3.7 3.696c.26.273.59.41.98.41.37 0 .69-.137.97-.41.27-.274.41-.598.41-.972 0-.382-.14-.707-.4-.973z"/>
</symbol><symbol id="icon-shopping-cart" viewBox="0 0 18 16">
    <title>
        fa-shopping-cart
    </title>
    <path d="M6.51 13.52c.28.288.41.628.41 1.021 0 .394-.13.734-.41 1.022-.27.288-.6.432-.97.432-.38 0-.7-.144-.97-.432a1.415 1.415 0 0 1-.42-1.022c0-.393.14-.733.42-1.021.27-.288.59-.431.97-.431.37 0 .7.143.97.43zm9.7 0c.27.288.41.628.41 1.021 0 .394-.14.734-.41 1.022-.28.288-.6.432-.97.432-.38 0-.7-.144-.98-.432a1.447 1.447 0 0 1-.41-1.022c0-.393.14-.733.41-1.021.28-.288.6-.431.98-.431.37 0 .69.143.97.43zM17.8 1.68a.658.658 0 0 0-.49-.215H4.32c-.01-.053-.03-.151-.05-.295a4.493 4.493 0 0 1-.06-.335C4.19.755 4.17.658 4.12.54a1.04 1.04 0 0 0-.14-.278.628.628 0 0 0-.21-.176.626.626 0 0 0-.31-.074H.69C.5.012.34.084.21.228a.708.708 0 0 0-.21.51c0 .197.07.368.21.511.13.144.29.216.48.216H2.9l1.91 9.342c-.01.038-.07.15-.16.335-.1.185-.18.337-.24.454-.05.117-.11.254-.17.408-.06.156-.09.275-.09.358 0 .197.07.367.21.511.14.144.3.216.49.216h11.08c.18 0 .35-.072.48-.216a.708.708 0 0 0 .21-.511.707.707 0 0 0-.21-.51.637.637 0 0 0-.48-.216H5.97c.18-.364.26-.606.26-.727 0-.075-.04-.34-.14-.794l11.3-1.386a.685.685 0 0 0 .44-.243c.12-.14.17-.301.17-.483V2.191a.698.698 0 0 0-.2-.51z"/>
</symbol><symbol id="icon-skype" viewBox="0 0 31 31">
    <title>
        fa-skype
    </title>
    <path d="M22.28 21.82a5.15 5.15 0 0 1-1.73 1.83c-.73.46-1.53.8-2.398 1.04-.873.25-1.785.37-2.735.37-2.202 0-4.097-.43-5.686-1.28-1.59-.86-2.384-1.88-2.384-3.08 0-.59.166-1.08.498-1.47.332-.39.824-.58 1.475-.58.378 0 .73.1 1.055.31.326.21.626.46.899.75.274.3.57.59.889.88.319.29.743.55 1.27.75.528.21 1.124.32 1.788.32.847 0 1.531-.17 2.052-.5.521-.33.782-.75.782-1.26 0-.52-.209-.91-.626-1.17-.286-.19-1.016-.42-2.188-.71l-2.853-.7c-.782-.18-1.453-.4-2.013-.64a6.603 6.603 0 0 1-1.563-.94c-.482-.4-.847-.89-1.094-1.48-.248-.59-.371-1.29-.371-2.08 0-.95.218-1.79.654-2.51a4.755 4.755 0 0 1 1.739-1.7 8.951 8.951 0 0 1 2.335-.92c.834-.2 1.694-.3 2.58-.3 1.25 0 2.435.15 3.556.45 1.119.3 2.049.74 2.779 1.32.72.58 1.09 1.22 1.09 1.94 0 .59-.19 1.09-.56 1.5-.37.42-.86.63-1.47.63-.34 0-.65-.08-.94-.23a3.96 3.96 0 0 1-.782-.57c-.234-.22-.482-.44-.742-.66-.261-.21-.613-.4-1.056-.55a4.407 4.407 0 0 0-1.504-.24c-1.876 0-2.814.5-2.814 1.51 0 .22.049.41.147.58.097.17.205.31.322.41.117.11.313.21.586.32.274.1.502.18.684.22.182.05.469.12.86.21l2.032.47c.638.14 1.208.29 1.71.44.497.16 1.037.38 1.607.67.58.29 1.05.6 1.43.96.38.35.69.79.95 1.33.25.55.38 1.14.38 1.79 0 .95-.22 1.81-.64 2.57zm6.48-5.83c0-1.86-.36-3.64-1.08-5.34-.73-1.7-1.7-3.17-2.93-4.4-1.23-1.23-2.7-2.21-4.4-2.93a13.57 13.57 0 0 0-5.344-1.09 14.3 14.3 0 0 0-2.931.32C10.72 1.5 9.196.98 7.503.98c-2.071 0-3.839.74-5.305 2.2C.733 4.65 0 6.42 0 8.49c0 1.69.521 3.21 1.563 4.57-.208 1-.313 1.98-.313 2.93 0 1.86.362 3.64 1.085 5.34.723 1.7 1.7 3.17 2.931 4.4 1.231 1.23 2.696 2.21 4.396 2.93 1.7.72 3.481 1.09 5.344 1.09a14.3 14.3 0 0 0 2.931-.32A7.274 7.274 0 0 0 22.51 31c2.07 0 3.84-.74 5.3-2.2 1.47-1.47 2.2-3.24 2.2-5.31 0-1.69-.52-3.21-1.56-4.57.21-1 .31-1.98.31-2.93z"/>
</symbol></svg>